<svg width="208" height="51" viewBox="0 0 208 51" fill="none" xmlns="http://www.w3.org/2000/svg">
<path d="M2 0.5C0.895431 0.5 0 1.39543 0 2.5C0 3.60457 0.895431 4.5 2 4.5V0.5ZM206.914 37.4142C207.695 36.6332 207.695 35.3668 206.914 34.5858L194.186 21.8579C193.405 21.0768 192.139 21.0768 191.358 21.8579C190.577 22.6389 190.577 23.9052 191.358 24.6863L202.672 36L191.358 47.3137C190.577 48.0948 190.577 49.3611 191.358 50.1421C192.139 50.9232 193.405 50.9232 194.186 50.1421L206.914 37.4142ZM104 19.25H106H104ZM104 19.25H106H104ZM2 4.5H87.25V0.5H2V4.5ZM120.75 38H205.5V34H120.75V38ZM102 19.25C102 29.6053 110.395 38 120.75 38V34C112.604 34 106 27.3962 106 19.25H102ZM87.25 4.5C95.3962 4.5 102 11.1038 102 19.25H106C106 8.89466 97.6053 0.5 87.25 0.5V4.5Z" fill="#B3B3B3"/>
</svg>
