<svg width="29" height="26" viewBox="0 0 29 26" fill="none" xmlns="http://www.w3.org/2000/svg">
<g clip-path="url(#clip0_180_26200)">
<path d="M9.45769 21.3062L8.75024 22.2051L10.3508 24.7093L10.1839 25.8673H16.974L17.4441 24.7093L14.713 21.3062H9.45769Z" fill="#0044F4"/>
<path d="M13.1712 6.06729L10.7151 10.3719L22.6947 24.566L22.3539 25.8675H27.849L28.8432 21.2497L16.0245 6.06494L13.1712 6.06729Z" fill="#0044F4"/>
<path d="M14.8024 2.83127L13.6343 4.98473H16.5322L21.5056 10.9109L24.4622 8.4797V6.93579L23.4351 5.49074L24.1942 4.69996L18.2621 0L14.8024 2.83127Z" fill="#0044F4"/>
<path d="M5.8852 14.8272H4.26583L0 20.2497V25.8676H4.57608L5.38459 24.8154L8.91476 20.2379H14.022L15.5944 17.8255L10.057 11.2451L5.8852 14.8272Z" fill="#0044F4"/>
</g>
<defs>
<clipPath id="clip0_180_26200">
<rect width="28.8438" height="26" fill="white"/>
</clipPath>
</defs>
</svg>
